<?xml version="1.0" encoding="UTF-8" standalone="no"?>
<!-- Generator: Adobe Illustrator 16.0.0, SVG Export Plug-In . SVG Version: 6.00 Build 0)  -->

<svg
   xmlns:dc="http://purl.org/dc/elements/1.1/"
   xmlns:cc="http://creativecommons.org/ns#"
   xmlns:rdf="http://www.w3.org/1999/02/22-rdf-syntax-ns#"
   xmlns:svg="http://www.w3.org/2000/svg"
   xmlns="http://www.w3.org/2000/svg"
   xmlns:sodipodi="http://sodipodi.sourceforge.net/DTD/sodipodi-0.dtd"
   xmlns:inkscape="http://www.inkscape.org/namespaces/inkscape"
   version="1.1"
   id="Layer_1"
   x="0px"
   y="0px"
   width="187.08699"
   height="59.089001"
   viewBox="0 0 187.08699 59.089002"
   enable-background="new 0 0 612 792"
   xml:space="preserve"
   inkscape:version="0.48.2 r9819"
   sodipodi:docname="Palmolive logo.svg"><metadata
   id="metadata19"><rdf:RDF><cc:Work
       rdf:about=""><dc:format>image/svg+xml</dc:format><dc:type
         rdf:resource="http://purl.org/dc/dcmitype/StillImage" /></cc:Work></rdf:RDF></metadata><defs
   id="defs17">
	
	
	
	
	
</defs><sodipodi:namedview
   pagecolor="#ffffff"
   bordercolor="#666666"
   borderopacity="1"
   objecttolerance="10"
   gridtolerance="10"
   guidetolerance="10"
   inkscape:pageopacity="0"
   inkscape:pageshadow="2"
   inkscape:window-width="1600"
   inkscape:window-height="837"
   id="namedview15"
   showgrid="false"
   fit-margin-top="0"
   fit-margin-left="0"
   fit-margin-right="0"
   fit-margin-bottom="0"
   inkscape:zoom="1.6856283"
   inkscape:cx="42.151538"
   inkscape:cy="36.593752"
   inkscape:window-x="-8"
   inkscape:window-y="-8"
   inkscape:window-maximized="1"
   inkscape:current-layer="Layer_1" />
<polygon
   style="fill:#00b082;fill-rule:evenodd"
   id="polygon7"
   points="211.834,372.205 211.834,372.205 398.921,372.205 398.921,420.551 211.834,420.551 "
   clip-rule="evenodd"
   transform="translate(-211.834,-366.833)" /><path
   style="fill:#ffffff;fill-rule:evenodd"
   inkscape:connector-curvature="0"
   id="path9"
   d="m 166.745,35.419 h -8.787 c 0.076,-4.426 1.163,-7.098 2.177,-8.02 1.064,-0.967 2.358,-1.792 3.816,-1.779 2.658,0.024 4.766,3.063 4.837,6.053 0.033,1.357 0.273,3.746 -2.043,3.746 l 0,0 z m -8.674,1.916 h 11.744 c 2.968,0 3.981,-2.35 3.975,-3.928 -0.011,-2.566 -1.026,-4.738 -2.513,-6.5 -1.879,-2.229 -4.534,-3.286 -7.452,-3.262 -3.315,0.027 -5.793,1.408 -7.826,3.706 -2.034,2.298 -3.247,4.978 -3.225,8.552 0.021,3.627 0.833,6.717 3.188,9.105 2.375,2.412 4.738,3.33 8.452,3.33 2.398,0 4.629,-1.408 5.51,-2.031 1.474,-1.047 3.197,-3.77 3.383,-5.225 -0.264,-0.328 -0.37,-0.756 -0.79,-0.75 -0.48,0.008 -0.922,0.412 -1.149,0.836 -1.578,2.938 -3.604,4.57 -6.433,4.57 -5.028,10e-4 -6.864,-4.065 -6.864,-8.403 l 0,0 z m -23.402,-13.166 6.913,23.56 h 4.149 c 2.001,-8.371 4.965,-16.422 9.094,-24.084 h -2.712 c -3.082,5.838 -5.375,12.113 -7.181,18.66 l -5.584,-18.136 h -4.679 l 0,0 z m -6.914,0 h 4.626 v 23.56 h -4.626 v -23.56 l 0,0 z m 2.366,-7.924 c 1.421,0 2.58,1.159 2.58,2.58 0,1.421 -1.159,2.579 -2.58,2.579 -1.421,0 -2.58,-1.158 -2.58,-2.579 0,-1.421 1.159,-2.58 2.58,-2.58 l 0,0 z m -12.403,-1.373 c 2.212,-1.055 4.715,-2.355 6.661,-2.477 V 47.73 h -4.627 V 18.521 c 0,-1.795 -0.612,-3.269 -1.926,-3.297 -0.169,-0.005 -0.298,-0.262 -0.108,-0.352 l 0,0 z m -22.086999,21.32 c 0.042,3.607 1.058999,6.502 3.133999,8.738 2.117,2.285 4.615,3.434 7.58,3.408 3.091,-0.025 5.903,-1.148 8.019,-3.486 2.204,-2.436 3.063,-5.512 3.034,-9.117 -0.014,-1.729 -0.086,-3.367 -0.705,-4.928 -0.651,-1.641 -1.549,-3.008 -2.574,-4.114 -1.092,-1.18 -2.321,-1.893 -3.412,-2.337 -1.154,-0.47 -2.942,-0.711 -4.382,-0.711 -3.177,0 -5.466,0.866 -7.627,3.203 -2.159,2.337 -3.066999,5.637 -3.066999,9.344 l 0,0 z m 16.777999,0.59 c -0.038,2.699 -0.569,4.881 -1.636,6.604 -1.102,1.781 -2.661,2.67 -4.41,2.643 -1.864,-0.029 -3.496,-1.133 -4.601,-3.428 -1.024,-2.127 -0.992,-4.67 -0.992,-7.541 0,-2.758 0.324,-4.914 1.37,-6.663 1.084,-1.813 2.699,-2.699 4.448,-2.699 1.939,0 3.396,1.137 4.488,3.445 1.001,2.114 1.333,4.653 1.333,7.639 l 0,0 z M 64.141001,26.275 c 1.986,0.371 2.04,2.23 2.04,4.314 V 47.73 h 4.525 V 28.673 c 1.417,-0.918 3.059,-2.18 4.664,-2.177 1.734,0.003 2.036,2.968 2.036,4.472 V 47.73 h 4.582 V 28.684 c 1.645,-1.067 2.229,-2.125 4.625,-2.074 1.706,0.037 1.961,1.999 1.961,3.343 V 47.73 h 4.695 V 30.38 c 0,-3.013 -0.703,-6.734 -5.025,-6.734 -2.476,0 -3.548,0.524 -6.472,2.955 -0.528,-1.479 -2.807,-2.955 -4.395,-2.955 -3.078,0 -4.652,1.516 -6.559,2.718 l 0.001,-2.718 c -1.38,0 -4.695,0.523 -6.678,2.629 l 0,0 z m -8.473,-11.403 c 2.212,-1.055 4.716,-2.355 6.662,-2.477 V 47.73 h -4.627 V 18.521 c 0,-1.795 -0.612,-3.269 -1.926,-3.297 -0.169,-0.005 -0.298,-0.262 -0.109,-0.352 l 0,0 z m -5.909,32.858 h 4.609 V 24.732 c -0.98,-0.735 -4.396,-0.843 -5.17,-0.843 -8.689,0 -15.505,5.443 -15.505,15.063 0,7.119 5.325,9.387 8.826,9.387 3.433,0 5.335,-1.42 6.155,-2.574 0.246,-0.344 0.072,-0.93 -0.375,-0.867 -0.573,0.082 -1.355,1.559 -4.198,1.637 -1.434,0.039 -2.618,-0.537 -3.294,-0.998 -1.482,-1.008 -2.64,-4.211 -2.676,-6.791 -0.07,-4.926 2.622,-12.465 8.429,-12.961 0.743,-0.063 2.298,-0.28 2.976,0.059 0.593,0.297 0.224,0.427 0.224,0.843 V 47.73 l -0.001,0 z m -31.018,0.072 V 13.344 c 1.289,-0.516 2.425,-0.867 3.596,-0.871 5.077,-0.018 8.823,4.031 8.748,10.315 -0.088,7.35 -3.753,10.07 -6.548,10.264 -3.227,0.223 -3.767,-0.914 -4.913,-0.877 -0.485,0.016 -1.068,0.436 -0.219,1.193 1.617,1.443 4.824,1.484 6.742,1.404 4.539,-0.188 9.782,-4.799 9.866,-12.256 0.07,-6.192 -4.597,-11.873 -12.466,-11.897 -2.719,-0.008 -7.419,0.524 -9.772,1.145 v 35.989 l 4.966,0.049 0,0 z"
   clip-rule="evenodd" /><polygon
   style="fill:#939598;fill-rule:evenodd"
   id="polygon11"
   points="211.834,366.833 211.834,366.833 398.921,366.833 398.921,369.241 211.834,369.241 "
   clip-rule="evenodd"
   transform="translate(-211.834,-366.833)" /><polygon
   style="fill:#939598;fill-rule:evenodd"
   id="polygon13"
   points="211.834,425.922 211.834,425.922 398.921,425.922 398.921,423.514 211.834,423.514 "
   clip-rule="evenodd"
   transform="translate(-211.834,-366.833)" />
</svg>